<?xml version="1.0" encoding="UTF-8"?>
<svg xmlns="http://www.w3.org/2000/svg" viewBox="0 0 533.5 544.3" role="img'" aria-hidden="true">
  <path fill="#4285F4" d="M533.5 278.4c0-18.5-1.6-36.4-4.6-53.7H272v101.6h146.9c-6.4 34.6-25.8 63.9-55 83.5v69.4h88.9c52-48 81.7-118.5 81.7-200.8z"/>
  <path fill="#34A853" d="M272 544.3c73.6 0 135.4-24.4 180.6-66.2l-88.9-69.4c-25 17-57.2 27-91.7 27-70.5 0-130.3-47.6-151.6-111.6H28.5v70.2C73.9 488.9 166.6 544.3 272 544.3z"/>
  <path fill="#FBBC05" d="M120.4 325.4c-10.6-31.4-10.6-65.4 0-96.8V158.4H28.5c-39.6 78.1-39.6 170.3 0 248.4l91.9-81.4z"/>
  <path fill="#EA4335" d="M272 108.9c38.9 0 74 13.4 101.5 39.6l76.1-76.1C403.2 24.6 336.1 0 272 0 166.6 0 73.9 55.4 28.5 138.6l91.9 70.3C141.7 156.5 201.5 108.9 272 108.9z"/>
</svg>
